<svg width="18" height="18" viewBox="0 0 18 18" fill="none" xmlns="http://www.w3.org/2000/svg">
<path d="M13.2825 14.4675L10.7325 11.925C11.5552 10.8768 12.0017 9.58249 12 8.25C12 7.06331 11.6481 5.90328 10.9888 4.91658C10.3295 3.92989 9.39246 3.16085 8.2961 2.70673C7.19975 2.2526 5.99335 2.13378 4.82946 2.36529C3.66557 2.5968 2.59648 3.16825 1.75736 4.00736C0.918247 4.84648 0.346802 5.91557 0.115291 7.07946C-0.11622 8.24335 0.00259969 9.44975 0.456725 10.5461C0.910851 11.6425 1.67989 12.5795 2.66658 13.2388C3.65328 13.8981 4.81331 14.25 6 14.25C7.33249 14.2517 8.62684 13.8052 9.675 12.9825L12.2175 15.5325C12.2872 15.6028 12.3702 15.6586 12.4616 15.6967C12.553 15.7347 12.651 15.7544 12.75 15.7544C12.849 15.7544 12.947 15.7347 13.0384 15.6967C13.1298 15.6586 13.2128 15.6028 13.2825 15.5325C13.3528 15.4628 13.4086 15.3798 13.4467 15.2884C13.4847 15.197 13.5044 15.099 13.5044 15C13.5044 14.901 13.4847 14.803 13.4467 14.7116C13.4086 14.6202 13.3528 14.5372 13.2825 14.4675ZM1.5 8.25C1.5 7.35999 1.76392 6.48996 2.25839 5.74994C2.75286 5.00992 3.45566 4.43314 4.27793 4.09254C5.10019 3.75195 6.00499 3.66284 6.87791 3.83647C7.75082 4.0101 8.55265 4.43869 9.18198 5.06802C9.81132 5.69736 10.2399 6.49918 10.4135 7.3721C10.5872 8.24501 10.4981 9.14981 10.1575 9.97208C9.81687 10.7943 9.24009 11.4971 8.50007 11.9916C7.76005 12.4861 6.89002 12.75 6 12.75C4.80653 12.75 3.66194 12.2759 2.81802 11.432C1.97411 10.5881 1.5 9.44348 1.5 8.25Z" fill="#231F20"/>
</svg>
